<svg xmlns="http://www.w3.org/2000/svg" viewBox="0 0 232.88 173.69"><defs><style>.cls-1{fill:#fff;}</style></defs><g id="Layer_2" data-name="Layer 2"><g id="Layer_13" data-name="Layer 13"><g id="clouds_sun" data-name="clouds + sun"><circle class="cls-1" cx="153.36" cy="80.61" r="41.74"/><rect class="cls-1" x="153.36" y="128.47" width="2.88" height="32.75"/><rect class="cls-1" x="151.92" width="2.88" height="32.75"/><rect class="cls-1" x="88.76" y="64.23" width="2.88" height="32.75" transform="translate(9.6 170.81) rotate(-90)"/><rect class="cls-1" x="215.07" y="64.23" width="2.88" height="32.75" transform="translate(135.9 297.12) rotate(-90)"/><rect class="cls-1" x="105.14" y="18.92" width="2.88" height="32.75" transform="translate(6.26 85.7) rotate(-45)"/><rect class="cls-1" x="195.98" y="109.77" width="2.88" height="32.75" transform="translate(-31.37 176.55) rotate(-45)"/><rect class="cls-1" x="105.14" y="107.91" width="2.88" height="32.75" transform="translate(94.05 287.53) rotate(-135)"/><rect class="cls-1" x="195.98" y="17.06" width="2.88" height="32.75" transform="translate(313.38 196.68) rotate(-135)"/><path class="cls-1" d="M154,173.69H35.75S0,161.33,0,135.75s8.81-33.51,28.22-39.83c0,0-.31-41.71,37.64-48.29s46.41,21.95,46.41,21.95,21.64-9.41,34.18,3.13c0,0,14.74,8.16,7.53,30.42,0,0,29.16,8.16,29.48,35.13S154,173.69,154,173.69Z"/></g></g></g></svg>