<svg xmlns="http://www.w3.org/2000/svg" viewBox="0 0 455.38 324.83"><defs><style>.cls-1{fill:#fff;}</style></defs><g id="Layer_2" data-name="Layer 2"><g id="Cloud_moon" data-name="Cloud + moon"><path class="cls-1" d="M349.41,154.84A141.56,141.56,0,0,1,424.74,4,141.63,141.63,0,0,0,255,103.68a98.64,98.64,0,0,0-23.19,6.18S214.33,50.93,136,64.53s-77.7,99.72-77.7,99.72C18.2,177.3,0,193.66,0,246.48s73.82,78.35,73.82,78.35H317.93s38.5-10.95,54.26-43.09a142.1,142.1,0,0,0,83.19-14A141.53,141.53,0,0,1,349.41,154.84Z"/></g></g></svg>