<svg xmlns="http://www.w3.org/2000/svg" viewBox="0 0 220.63 134.37"><defs><style>.cls-1,.cls-2{fill:#fff;}.cls-2{opacity:0.7;}</style></defs><g id="Layer_2" data-name="Layer 2"><g id="Layer_14" data-name="Layer 14"><g id="clouds"><path class="cls-1" d="M151.91,134.37H35.27S0,121.29,0,94.24,8.69,58.8,27.84,52.12C27.84,52.12,27.54,8,65,1s45.79,23.22,45.79,23.22,21.35-10,33.72,3.32c0,0,14.54,8.62,7.43,32.16,0,0,28.77,8.63,29.08,37.15S151.91,134.37,151.91,134.37Z"/><path class="cls-2" d="M191.55,134.37H74.91S39.64,121.29,39.64,94.24,48.33,58.8,67.48,52.12c0,0-.31-44.11,37.13-51.08S150.4,24.26,150.4,24.26s21.35-10,33.72,3.32c0,0,14.54,8.62,7.43,32.16,0,0,28.77,8.63,29.08,37.15S191.55,134.37,191.55,134.37Z"/></g></g></g></svg>