<svg xmlns="http://www.w3.org/2000/svg" viewBox="0 0 461.76 262.34"><defs><style>.cls-1,.cls-2{fill:#fff;}.cls-2{opacity:0.7;}</style></defs><g id="Layer_2" data-name="Layer 2"><g id="broken_clouds" data-name="broken clouds"><path class="cls-1" d="M317.93,262.34H73.82S0,236.81,0,184s18.2-69.19,58.28-82.23c0,0-.65-86.12,77.7-99.72s95.83,45.32,95.83,45.32,44.68-19.42,70.58,6.48c0,0,30.43,16.83,15.54,62.81,0,0,60.22,16.83,60.87,72.52S317.93,262.34,317.93,262.34Z"/><path class="cls-2" d="M400.89,262.34H156.78S83,236.81,83,184s18.2-69.19,58.28-82.23c0,0-.65-86.12,77.7-99.72s95.83,45.32,95.83,45.32,44.68-19.42,70.58,6.48c0,0,30.43,16.83,15.54,62.81,0,0,60.22,16.83,60.87,72.52S400.89,262.34,400.89,262.34Z"/></g></g></svg>