<svg xmlns="http://www.w3.org/2000/svg" viewBox="0 0 229.53 218.41"><defs><style>.cls-1,.cls-2{fill:#fff;}.cls-1{opacity:0.7;}</style></defs><g id="Layer_2" data-name="Layer 2"><g id="Layer_15" data-name="Layer 15"><g id="shower_rain" data-name="shower rain"><path class="cls-1" d="M197.73,138H70.18S31.62,124.62,31.62,97s9.5-36.15,30.44-43c0,0-.33-45,40.6-52.1s50.07,23.68,50.07,23.68S176.08,15.48,189.61,29c0,0,15.9,8.79,8.12,32.81,0,0,31.46,8.8,31.8,37.9S197.73,138,197.73,138Z"/><path class="cls-2" d="M166.11,137.07H38.57S0,123.73,0,96.13,9.51,60,30.45,53.17c0,0-.34-45,40.6-52.11s50.07,23.69,50.07,23.69S144.46,14.6,158,28.13c0,0,15.9,8.8,8.12,32.82,0,0,31.47,8.79,31.81,37.89S166.11,137.07,166.11,137.07Z"/><path class="cls-2" d="M43.66,149s-3.68,6.3-4.17,8,.48,6.19,4.17,5.89"/><path class="cls-2" d="M43.66,149s3.67,6.3,4.16,8-.48,6.19-4.16,5.89"/><path class="cls-2" d="M33.52,166.25s-3.67,6.3-4.16,8,.48,6.19,4.16,5.89"/><path class="cls-2" d="M33.52,166.25s3.68,6.3,4.17,8-.48,6.19-4.17,5.89"/><path class="cls-2" d="M68,149s-3.68,6.3-4.17,8,.48,6.19,4.17,5.89"/><path class="cls-2" d="M68,149s3.67,6.3,4.16,8-.48,6.19-4.16,5.89"/><path class="cls-2" d="M57,166.25s-3.68,6.3-4.17,8,.48,6.19,4.17,5.89"/><path class="cls-2" d="M57,166.25s3.67,6.3,4.16,8-.48,6.19-4.16,5.89"/><path class="cls-2" d="M84,166.25s-3.67,6.3-4.17,8,.48,6.19,4.17,5.89"/><path class="cls-2" d="M84,166.25s3.68,6.3,4.17,8-.48,6.19-4.17,5.89"/><path class="cls-2" d="M96.87,149s-3.68,6.3-4.17,8,.48,6.19,4.17,5.89"/><path class="cls-2" d="M96.87,149s3.67,6.3,4.17,8-.48,6.19-4.17,5.89"/><path class="cls-2" d="M122.73,149s-3.67,6.3-4.16,8,.48,6.19,4.16,5.89"/><path class="cls-2" d="M122.73,149s3.68,6.3,4.17,8-.48,6.19-4.17,5.89"/><path class="cls-2" d="M112.6,166.26s-3.67,6.3-4.17,8,.48,6.19,4.17,5.89"/><path class="cls-2" d="M112.6,166.26s3.68,6.3,4.17,8-.48,6.19-4.17,5.89"/><path class="cls-2" d="M147.1,149s-3.67,6.3-4.16,8,.47,6.19,4.16,5.89"/><path class="cls-2" d="M147.1,149s3.68,6.3,4.17,8-.48,6.19-4.17,5.89"/><path class="cls-2" d="M136.06,166.26s-3.67,6.3-4.16,8,.47,6.19,4.16,5.89"/><path class="cls-2" d="M136.06,166.26s3.68,6.3,4.17,8-.48,6.19-4.17,5.89"/><path class="cls-2" d="M163.12,166.26s-3.68,6.3-4.17,8,.48,6.19,4.17,5.89"/><path class="cls-2" d="M163.12,166.26s3.67,6.3,4.17,8-.48,6.19-4.17,5.89"/><path class="cls-2" d="M46.49,187.16s-3.67,6.29-4.17,8,.48,6.19,4.17,5.89"/><path class="cls-2" d="M46.49,187.16s3.68,6.29,4.17,8-.48,6.19-4.17,5.89"/><path class="cls-2" d="M36.36,204.45s-3.68,6.3-4.17,8,.48,6.19,4.17,5.89"/><path class="cls-2" d="M36.36,204.45s3.67,6.3,4.17,8-.48,6.19-4.17,5.89"/><path class="cls-2" d="M70.86,187.16s-3.68,6.29-4.17,8,.48,6.19,4.17,5.89"/><path class="cls-2" d="M70.86,187.16s3.68,6.29,4.17,8-.48,6.19-4.17,5.89"/><path class="cls-2" d="M59.82,204.45s-3.68,6.3-4.17,8,.48,6.19,4.17,5.89"/><path class="cls-2" d="M59.82,204.45s3.68,6.3,4.17,8-.48,6.19-4.17,5.89"/><path class="cls-2" d="M86.88,204.45s-3.68,6.3-4.17,8,.48,6.19,4.17,5.89"/><path class="cls-2" d="M86.88,204.45s3.67,6.3,4.16,8-.48,6.19-4.16,5.89"/><path class="cls-2" d="M99.7,187.16s-3.67,6.29-4.16,8,.47,6.19,4.16,5.89"/><path class="cls-2" d="M99.7,187.16s3.68,6.29,4.17,8-.48,6.19-4.17,5.89"/><path class="cls-2" d="M125.57,187.17s-3.68,6.3-4.17,8,.48,6.19,4.17,5.89"/><path class="cls-2" d="M125.57,187.17s3.67,6.3,4.17,8-.48,6.19-4.17,5.89"/><path class="cls-2" d="M115.43,204.46s-3.67,6.3-4.16,8,.48,6.19,4.16,5.89"/><path class="cls-2" d="M115.43,204.46s3.68,6.3,4.17,8-.48,6.19-4.17,5.89"/><path class="cls-2" d="M149.94,187.17s-3.68,6.3-4.17,8,.48,6.19,4.17,5.89"/><path class="cls-2" d="M149.94,187.17s3.67,6.3,4.16,8-.48,6.19-4.16,5.89"/><path class="cls-2" d="M138.9,204.46s-3.68,6.3-4.17,8,.48,6.19,4.17,5.89"/><path class="cls-2" d="M138.9,204.46s3.67,6.3,4.16,8-.48,6.19-4.16,5.89"/><path class="cls-2" d="M166,204.46s-3.67,6.3-4.16,8,.47,6.19,4.16,5.89"/><path class="cls-2" d="M166,204.46s3.68,6.3,4.17,8-.48,6.19-4.17,5.89"/></g></g></g></svg>