<svg xmlns="http://www.w3.org/2000/svg" viewBox="0 0 439.31 418.02"><defs><style>.cls-1{fill:#fff;opacity:0.7;}.cls-2{fill:#fcfcfc;}</style></defs><g id="Layer_2" data-name="Layer 2"><g id="shower_rain" data-name="shower rain"><path class="cls-1" d="M378.44,264H134.33s-73.82-25.53-73.82-78.35,18.2-69.19,58.28-82.24c0,0-.65-86.12,77.7-99.71s95.83,45.32,95.83,45.32S337,29.64,362.9,55.54c0,0,30.44,16.83,15.54,62.81,0,0,60.22,16.83,60.87,72.52S378.44,264,378.44,264Z"/><path class="cls-2" d="M317.93,262.34H73.82S0,236.81,0,184s18.2-69.19,58.28-82.23c0,0-.65-86.12,77.7-99.72s95.83,45.32,95.83,45.32,44.68-19.42,70.58,6.48c0,0,30.43,16.83,15.54,62.81,0,0,60.22,16.83,60.87,72.52S317.93,262.34,317.93,262.34Z"/><path class="cls-2" d="M83.56,285.1s-7,12-8,15.39.92,11.84,8,11.27"/><path class="cls-2" d="M83.56,285.1s7,12,8,15.39-.91,11.84-8,11.27"/><path class="cls-2" d="M64.16,318.19s-7,12.06-8,15.39.91,11.84,8,11.28"/><path class="cls-2" d="M64.16,318.19s7,12.06,8,15.39-.92,11.84-8,11.28"/><path class="cls-2" d="M130.2,285.1s-7,12-8,15.39.92,11.84,8,11.27"/><path class="cls-2" d="M130.2,285.1s7,12,8,15.39-.91,11.84-8,11.27"/><path class="cls-2" d="M109.07,318.19s-7,12.06-8,15.39.92,11.84,8,11.28"/><path class="cls-2" d="M109.07,318.19s7,12.06,8,15.39-.91,11.84-8,11.28"/><path class="cls-2" d="M160.85,318.19s-7,12.06-8,15.39.91,11.84,8,11.28"/><path class="cls-2" d="M160.85,318.19s7,12.06,8,15.39-.92,11.84-8,11.28"/><path class="cls-2" d="M185.4,285.1s-7,12-8,15.39.91,11.84,8,11.27"/><path class="cls-2" d="M185.4,285.1s7,12,8,15.39-.92,11.84-8,11.27"/><path class="cls-2" d="M234.91,285.12s-7,12.05-8,15.39.92,11.84,8,11.27"/><path class="cls-2" d="M234.91,285.12s7,12.05,8,15.39-.92,11.84-8,11.27"/><path class="cls-2" d="M215.51,318.21s-7,12.06-8,15.4.91,11.84,8,11.27"/><path class="cls-2" d="M215.51,318.21s7,12.06,8,15.4-.92,11.84-8,11.27"/><path class="cls-2" d="M281.55,285.12s-7,12.05-8,15.39.92,11.84,8,11.27"/><path class="cls-2" d="M281.55,285.12s7,12.05,8,15.39-.92,11.84-8,11.27"/><path class="cls-2" d="M260.42,318.21s-7,12.06-8,15.4.92,11.84,8,11.27"/><path class="cls-2" d="M260.42,318.21s7,12.06,8,15.4-.92,11.84-8,11.27"/><path class="cls-2" d="M312.2,318.21s-7,12.06-8,15.4.92,11.84,8,11.27"/><path class="cls-2" d="M312.2,318.21s7,12.06,8,15.4-.92,11.84-8,11.27"/><path class="cls-2" d="M89,358.21s-7,12.05-8,15.39.92,11.84,8,11.27"/><path class="cls-2" d="M89,358.21s7,12.05,8,15.39-.92,11.84-8,11.27"/><path class="cls-2" d="M69.59,391.3s-7,12.06-8,15.4.92,11.84,8,11.27"/><path class="cls-2" d="M69.59,391.3s7,12.06,8,15.4-.92,11.84-8,11.27"/><path class="cls-2" d="M135.62,358.21s-7,12.05-8,15.39.92,11.84,8,11.27"/><path class="cls-2" d="M135.62,358.21s7,12.05,8,15.39-.92,11.84-8,11.27"/><path class="cls-2" d="M114.49,391.3s-7,12.06-8,15.4.92,11.84,8,11.27"/><path class="cls-2" d="M114.49,391.3s7,12.06,8,15.4-.92,11.84-8,11.27"/><path class="cls-2" d="M166.28,391.3s-7,12.06-8,15.4.92,11.84,8,11.27"/><path class="cls-2" d="M166.28,391.3s7,12.06,8,15.4-.92,11.84-8,11.27"/><path class="cls-2" d="M190.83,358.21s-7,12.05-8,15.39.92,11.84,8,11.27"/><path class="cls-2" d="M190.83,358.21s7,12.05,8,15.39-.92,11.84-8,11.27"/><path class="cls-2" d="M240.33,358.23s-7,12-8,15.39.92,11.84,8,11.27"/><path class="cls-2" d="M240.33,358.23s7,12,8,15.39-.92,11.84-8,11.27"/><path class="cls-2" d="M220.93,391.33s-7,12.05-8,15.39.92,11.84,8,11.27"/><path class="cls-2" d="M220.93,391.33s7,12.05,8,15.39-.92,11.84-8,11.27"/><path class="cls-2" d="M287,358.23s-7,12-8,15.39.92,11.84,8,11.27"/><path class="cls-2" d="M287,358.23s7,12,8,15.39-.92,11.84-8,11.27"/><path class="cls-2" d="M265.84,391.33s-7,12.05-8,15.39.92,11.84,8,11.27"/><path class="cls-2" d="M265.84,391.33s7,12.05,8,15.39-.92,11.84-8,11.27"/><path class="cls-2" d="M317.62,391.33s-7,12.05-8,15.39.92,11.84,8,11.27"/><path class="cls-2" d="M317.62,391.33s7,12.05,8,15.39-.92,11.84-8,11.27"/></g></g></svg>