<svg xmlns="http://www.w3.org/2000/svg" viewBox="0 0 226.95 242.72"><defs><style>.cls-1{fill:#fff;}</style></defs><g id="Layer_2" data-name="Layer 2"><g id="Layer_16" data-name="Layer 16"><g id="rain"><circle class="cls-1" cx="153.19" cy="74.76" r="38.72"/><rect class="cls-1" x="153.19" y="119.16" width="2.67" height="30.37"/><rect class="cls-1" x="151.86" width="2.67" height="30.37"/><rect class="cls-1" x="93.28" y="59.58" width="2.67" height="30.37" transform="translate(19.85 169.38) rotate(-90)"/><rect class="cls-1" x="210.43" y="59.58" width="2.67" height="30.37" transform="translate(137 286.53) rotate(-90)"/><rect class="cls-1" x="108.47" y="17.55" width="2.67" height="30.37" transform="translate(9.01 87.23) rotate(-45)"/><rect class="cls-1" x="192.73" y="101.81" width="2.67" height="30.37" transform="translate(-25.89 171.49) rotate(-45)"/><rect class="cls-1" x="108.47" y="100.09" width="2.67" height="30.37" transform="translate(105.93 274.43) rotate(-135)"/><rect class="cls-1" x="192.73" y="15.83" width="2.67" height="30.37" transform="translate(309.36 190.17) rotate(-135)"/><path class="cls-1" d="M158.11,165.29H36.71S0,152.6,0,126.33s9.05-34.41,29-40.9c0,0-.32-42.83,38.64-49.59s47.66,22.54,47.66,22.54,22.22-9.66,35.1,3.22c0,0,15.14,8.37,7.73,31.24,0,0,29.95,8.37,30.27,36.07S158.11,165.29,158.11,165.29Z"/><path class="cls-1" d="M41.55,176.61s-3.49,6-4,7.66.45,5.88,4,5.6"/><path class="cls-1" d="M41.55,176.61s3.5,6,4,7.66-.46,5.88-4,5.6"/><path class="cls-1" d="M31.91,193.07s-3.5,6-4,7.66.46,5.88,4,5.6"/><path class="cls-1" d="M31.91,193.07s3.5,6,4,7.66-.46,5.88-4,5.6"/><path class="cls-1" d="M64.75,176.61s-3.5,6-4,7.66.46,5.88,4,5.6"/><path class="cls-1" d="M64.75,176.61s3.5,6,4,7.66-.46,5.88-4,5.6"/><path class="cls-1" d="M54.24,193.07s-3.5,6-4,7.66.46,5.88,4,5.6"/><path class="cls-1" d="M54.24,193.07s3.5,6,4,7.66-.46,5.88-4,5.6"/><path class="cls-1" d="M80,193.07s-3.49,6-4,7.66.45,5.88,4,5.6"/><path class="cls-1" d="M80,193.07s3.5,6,4,7.66-.46,5.88-4,5.6"/><path class="cls-1" d="M92.2,176.61s-3.49,6-4,7.66.45,5.88,4,5.6"/><path class="cls-1" d="M92.2,176.61s3.5,6,4,7.66-.46,5.88-4,5.6"/><path class="cls-1" d="M116.82,176.62s-3.5,6-4,7.66.45,5.89,4,5.6"/><path class="cls-1" d="M116.82,176.62s3.5,6,4,7.66-.46,5.89-4,5.6"/><path class="cls-1" d="M107.18,193.08s-3.5,6-4,7.66.46,5.88,4,5.6"/><path class="cls-1" d="M107.18,193.08s3.5,6,4,7.66-.45,5.88-4,5.6"/><path class="cls-1" d="M140,176.62s-3.5,6-4,7.66.46,5.89,4,5.6"/><path class="cls-1" d="M140,176.62s3.5,6,4,7.66-.45,5.89-4,5.6"/><path class="cls-1" d="M129.51,193.08s-3.5,6-4,7.66.46,5.88,4,5.6"/><path class="cls-1" d="M129.51,193.08s3.5,6,4,7.66-.46,5.88-4,5.6"/><path class="cls-1" d="M155.26,193.08s-3.5,6-4,7.66.45,5.88,4,5.6"/><path class="cls-1" d="M155.26,193.08s3.5,6,4,7.66-.46,5.88-4,5.6"/><path class="cls-1" d="M44.25,213s-3.5,6-4,7.66.45,5.88,4,5.6"/><path class="cls-1" d="M44.25,213s3.5,6,4,7.66-.46,5.88-4,5.6"/><path class="cls-1" d="M34.61,229.43s-3.5,6-4,7.65.46,5.89,4,5.61"/><path class="cls-1" d="M34.61,229.43s3.5,6,4,7.65-.45,5.89-4,5.61"/><path class="cls-1" d="M67.45,213s-3.5,6-4,7.66.46,5.88,4,5.6"/><path class="cls-1" d="M67.45,213s3.5,6,4,7.66-.45,5.88-4,5.6"/><path class="cls-1" d="M56.94,229.43s-3.5,6-4,7.65.46,5.89,4,5.61"/><path class="cls-1" d="M56.94,229.43s3.5,6,4,7.65-.46,5.89-4,5.61"/><path class="cls-1" d="M82.69,229.43s-3.5,6-4,7.65.46,5.89,4,5.61"/><path class="cls-1" d="M82.69,229.43s3.5,6,4,7.65-.46,5.89-4,5.61"/><path class="cls-1" d="M94.9,213s-3.5,6-4,7.66.46,5.88,4,5.6"/><path class="cls-1" d="M94.9,213s3.5,6,4,7.66-.46,5.88-4,5.6"/><path class="cls-1" d="M119.52,213s-3.5,6-4,7.66.46,5.88,4,5.6"/><path class="cls-1" d="M119.52,213s3.5,6,4,7.66-.46,5.88-4,5.6"/><path class="cls-1" d="M109.87,229.44s-3.49,6-4,7.66.45,5.88,4,5.6"/><path class="cls-1" d="M109.87,229.44s3.5,6,4,7.66-.45,5.88-4,5.6"/><path class="cls-1" d="M142.72,213s-3.5,6-4,7.66.46,5.88,4,5.6"/><path class="cls-1" d="M142.72,213s3.49,6,4,7.66-.45,5.88-4,5.6"/><path class="cls-1" d="M132.21,229.44s-3.5,6-4,7.66.46,5.88,4,5.6"/><path class="cls-1" d="M132.21,229.44s3.5,6,4,7.66-.45,5.88-4,5.6"/><path class="cls-1" d="M158,229.44s-3.5,6-4,7.66.46,5.88,4,5.6"/><path class="cls-1" d="M158,229.44s3.5,6,4,7.66-.46,5.88-4,5.6"/></g></g></g></svg>