<svg xmlns="http://www.w3.org/2000/svg" viewBox="0 0 421.25 414.66"><defs><style>.cls-1{fill:#fff;}</style></defs><g id="Layer_2" data-name="Layer 2"><g id="Rain"><path class="cls-1" d="M326.74,151.28A142.26,142.26,0,0,1,417.37,8.08,142.29,142.29,0,0,0,242.54,79.24c-18.68-1.8-36.48,5.94-36.48,5.94S190.52,32.8,120.87,44.89,51.8,133.53,51.8,133.53C16.18,145.13,0,159.68,0,206.63s65.62,69.64,65.62,69.64h217a91.86,91.86,0,0,0,19.76-9,142.49,142.49,0,0,0,118.88,7.61A142.24,142.24,0,0,1,326.74,151.28Z"/><path class="cls-1" d="M74.27,320.2c6.28.51,7.93-7.05,7.09-10s-7.09-13.68-7.09-13.68S68,307.22,67.18,310.18,68,320.71,74.27,320.2Z"/><path class="cls-1" d="M57,349.62c6.28.51,7.93-7.05,7.09-10S57,325.92,57,325.92s-6.25,10.71-7.09,13.68S50.76,350.13,57,349.62Z"/><path class="cls-1" d="M115.73,320.2c6.28.51,7.93-7.05,7.09-10s-7.09-13.68-7.09-13.68-6.25,10.72-7.09,13.68S109.46,320.71,115.73,320.2Z"/><path class="cls-1" d="M97,349.62c6.27.51,7.93-7.05,7.09-10S97,325.92,97,325.92s-6.25,10.71-7.09,13.68S90.68,350.13,97,349.62Z"/><path class="cls-1" d="M143,349.62c6.27.51,7.93-7.05,7.09-10S143,325.92,143,325.92s-6.25,10.71-7.09,13.68S136.71,350.13,143,349.62Z"/><path class="cls-1" d="M164.8,320.2c6.28.51,7.93-7.05,7.09-10s-7.09-13.68-7.09-13.68-6.25,10.72-7.09,13.68S158.53,320.71,164.8,320.2Z"/><path class="cls-1" d="M208.81,320.22c6.27.51,7.92-7.05,7.09-10s-7.09-13.68-7.09-13.68-6.26,10.72-7.09,13.68S202.53,320.73,208.81,320.22Z"/><path class="cls-1" d="M191.57,349.64c6.27.51,7.92-7.05,7.09-10s-7.09-13.68-7.09-13.68-6.26,10.72-7.09,13.68S185.29,350.15,191.57,349.64Z"/><path class="cls-1" d="M250.27,320.22c6.27.51,7.92-7.05,7.09-10s-7.09-13.68-7.09-13.68-6.26,10.72-7.09,13.68S244,320.73,250.27,320.22Z"/><path class="cls-1" d="M231.48,349.64c6.28.51,7.93-7.05,7.09-10s-7.09-13.68-7.09-13.68-6.25,10.72-7.09,13.68S225.21,350.15,231.48,349.64Z"/><path class="cls-1" d="M277.51,349.64c6.28.51,7.93-7.05,7.09-10s-7.09-13.68-7.09-13.68-6.25,10.72-7.09,13.68S271.24,350.15,277.51,349.64Z"/><path class="cls-1" d="M79.09,361.49S72.84,372.2,72,375.17s.82,10.53,7.09,10c6.28.51,7.93-7.05,7.1-10S79.09,361.49,79.09,361.49Z"/><path class="cls-1" d="M61.86,390.91s-6.26,10.71-7.09,13.68.81,10.52,7.09,10c6.27.5,7.92-7.05,7.09-10S61.86,390.91,61.86,390.91Z"/><path class="cls-1" d="M120.55,361.49s-6.25,10.71-7.09,13.68.82,10.53,7.09,10c6.28.51,7.93-7.05,7.09-10S120.55,361.49,120.55,361.49Z"/><path class="cls-1" d="M101.77,390.91s-6.25,10.71-7.09,13.68.82,10.52,7.09,10c6.27.5,7.93-7.05,7.09-10S101.77,390.91,101.77,390.91Z"/><path class="cls-1" d="M147.8,390.91s-6.25,10.71-7.09,13.68.82,10.52,7.09,10c6.28.5,7.93-7.05,7.09-10S147.8,390.91,147.8,390.91Z"/><path class="cls-1" d="M169.62,361.49s-6.25,10.71-7.09,13.68.82,10.53,7.09,10c6.28.51,7.93-7.05,7.09-10S169.62,361.49,169.62,361.49Z"/><path class="cls-1" d="M213.63,361.51s-6.25,10.71-7.09,13.68.81,10.53,7.09,10c6.27.51,7.93-7,7.09-10S213.63,361.51,213.63,361.51Z"/><path class="cls-1" d="M196.39,390.93s-6.25,10.71-7.09,13.68.81,10.53,7.09,10c6.27.51,7.93-7.05,7.09-10S196.39,390.93,196.39,390.93Z"/><path class="cls-1" d="M255.09,361.51s-6.26,10.71-7.09,13.68.81,10.53,7.09,10c6.27.51,7.92-7,7.09-10S255.09,361.51,255.09,361.51Z"/><path class="cls-1" d="M236.3,390.93s-6.25,10.71-7.09,13.68.82,10.53,7.09,10c6.28.51,7.93-7.05,7.09-10S236.3,390.93,236.3,390.93Z"/><path class="cls-1" d="M282.34,390.93s-6.26,10.71-7.09,13.68.81,10.53,7.09,10c6.27.51,7.92-7.05,7.09-10S282.34,390.93,282.34,390.93Z"/></g></g></svg>