<svg xmlns="http://www.w3.org/2000/svg" viewBox="0 0 229.56 217.13"><defs><style>.cls-1,.cls-2{fill:#fff;}.cls-1{opacity:0.7;}</style></defs><g id="Layer_2" data-name="Layer 2"><g id="Layer_17" data-name="Layer 17"><g id="thunder"><path class="cls-1" d="M199.3,130.42H77.94s-36.7-12.69-36.7-38.95,9-34.4,29-40.88c0,0-.32-42.82,38.63-49.58s47.65,22.54,47.65,22.54,22.21-9.66,35.08,3.22c0,0,15.13,8.37,7.73,31.22,0,0,29.94,8.37,30.26,36.05S199.3,130.42,199.3,130.42Z"/><path class="cls-2" d="M158.06,130.42H36.7S0,117.73,0,91.47s9.05-34.4,29-40.88c0,0-.32-42.82,38.63-49.58s47.64,22.54,47.64,22.54,22.21-9.66,35.09,3.22c0,0,15.13,8.37,7.73,31.22,0,0,29.93,8.37,30.26,36.05S158.06,130.42,158.06,130.42Z"/><polygon class="cls-2" points="96.73 134.93 127.11 134.93 105.07 164.72 128.1 163.92 87.06 217.13 99.24 176.03 83.93 176.03 96.73 134.93"/></g></g></g></svg>