<svg xmlns="http://www.w3.org/2000/svg" viewBox="0 0 228.44 220.01"><defs><style>.cls-1,.cls-2{fill:#fff;}.cls-1{opacity:0.7;}</style></defs><g id="Layer_2" data-name="Layer 2"><g id="Layer_18" data-name="Layer 18"><g id="snow"><path class="cls-1" d="M198.32,129.78H77.56S41,117.15,41,91s9-34.23,28.83-40.68c0,0-.32-42.61,38.44-49.33s47.41,22.42,47.41,22.42,22.1-9.61,34.91,3.2c0,0,15.06,8.33,7.69,31.08,0,0,29.79,8.32,30.11,35.87S198.32,129.78,198.32,129.78Z"/><path class="cls-2" d="M157.28,129.78H36.52S0,117.15,0,91,9,56.79,28.83,50.34c0,0-.32-42.61,38.44-49.33s47.41,22.42,47.41,22.42,22.1-9.61,34.91,3.2c0,0,15.06,8.33,7.69,31.08,0,0,29.79,8.32,30.11,35.87S157.28,129.78,157.28,129.78Z"/><path class="cls-2" d="M87.2,178.29,85.88,178l1.17-.68a.22.22,0,0,0,.09-.32l0-.06a.24.24,0,0,0-.33-.08l-1.23.71.38-1.37a.17.17,0,0,0-.14-.21h-.05a.2.2,0,0,0-.23.14L85,177.91l-2.51,1.45v-2.2l1.28-1.39a.2.2,0,0,0,0-.27l0,0a.16.16,0,0,0-.25,0l-1,1.08v-2.11a.23.23,0,0,0-.24-.23h-.06a.23.23,0,0,0-.24.23v2l-.88-.95a.16.16,0,0,0-.25,0l0,0a.22.22,0,0,0,0,.27L82,177v2.33l-2.5-1.44L79,176.18a.21.21,0,0,0-.23-.15h0a.17.17,0,0,0-.14.21l.36,1.37-1.26-.72a.23.23,0,0,0-.32.08l0,.06a.23.23,0,0,0,.08.32l1.19.69-1.32.23a.17.17,0,0,0-.14.21v0a.21.21,0,0,0,.23.15l1.79-.32,2.51,1.46-2.43,1.4-1.83-.36a.21.21,0,0,0-.23.15v0a.17.17,0,0,0,.13.21l1.39.27-1.29.74a.23.23,0,0,0-.08.32l0,.06a.24.24,0,0,0,.32.09L79,182l-.36,1.3a.18.18,0,0,0,.14.22h0a.2.2,0,0,0,.23-.14l.46-1.68L82,180.29v2.61l-1.17,1.26a.22.22,0,0,0,0,.27l0,0a.18.18,0,0,0,.25,0l.88-.95v1.7a.24.24,0,0,0,.24.24h.06a.24.24,0,0,0,.24-.24v-1.83l1,1.08a.17.17,0,0,0,.25,0l0,0a.2.2,0,0,0,0-.27l-1.28-1.39v-2.48l2.16,1.25.46,1.77a.2.2,0,0,0,.23.15h0a.16.16,0,0,0,.13-.21l-.36-1.4,1.59.92a.25.25,0,0,0,.33-.09l0-.06a.22.22,0,0,0-.09-.32l-1.47-.85,1.28-.23A.16.16,0,0,0,87,181V181a.21.21,0,0,0-.23-.15l-1.74.31-2.22-1.28,2.54-1.47,1.76.34a.2.2,0,0,0,.23-.14v-.05A.17.17,0,0,0,87.2,178.29Z"/><path class="cls-2" d="M55.81,149l-2-.39,1.8-1a.37.37,0,0,0,.13-.5l0-.08a.36.36,0,0,0-.5-.14l-1.9,1.1.58-2.11a.26.26,0,0,0-.2-.33h-.08a.31.31,0,0,0-.35.22l-.74,2.69-3.87,2.23v-3.39l2-2.14a.31.31,0,0,0,0-.42l0,0a.26.26,0,0,0-.39,0l-1.53,1.66V143.1a.37.37,0,0,0-.37-.36h-.1a.36.36,0,0,0-.36.36v3l-1.36-1.46a.25.25,0,0,0-.38,0l-.06,0a.33.33,0,0,0,0,.42l1.8,1.94v3.59l-3.85-2.22-.69-2.68a.31.31,0,0,0-.36-.22h-.07a.26.26,0,0,0-.21.33l.54,2.11-1.93-1.12a.36.36,0,0,0-.5.14l-.05.08a.37.37,0,0,0,.13.5l1.83,1-2,.36a.27.27,0,0,0-.21.33l0,.07a.31.31,0,0,0,.36.23l2.74-.48,3.87,2.23-3.74,2.16L40.81,153a.31.31,0,0,0-.36.23l0,.07a.26.26,0,0,0,.2.33l2.14.41-2,1.14a.37.37,0,0,0-.13.5l.05.09a.37.37,0,0,0,.5.13l1.94-1.12-.56,2a.26.26,0,0,0,.21.33h.07a.31.31,0,0,0,.36-.22l.72-2.59,3.83-2.21v4L46,158.08a.32.32,0,0,0,0,.41l.06.06a.25.25,0,0,0,.38,0l1.36-1.46v2.61a.36.36,0,0,0,.36.37h.1a.37.37,0,0,0,.37-.37v-2.81l1.53,1.66a.26.26,0,0,0,.39,0l0-.06a.3.3,0,0,0,0-.41l-2-2.14v-3.82L51.93,154l.71,2.73A.31.31,0,0,0,53,157h.08a.27.27,0,0,0,.21-.33l-.56-2.16,2.45,1.41a.37.37,0,0,0,.5-.13l0-.09a.37.37,0,0,0-.13-.5l-2.27-1.31,2-.34a.27.27,0,0,0,.21-.33l0-.08a.31.31,0,0,0-.35-.22l-2.68.47-3.43-2,3.91-2.26,2.71.53a.31.31,0,0,0,.36-.22l0-.08A.26.26,0,0,0,55.81,149Z"/><path class="cls-2" d="M135.33,146.24l-2-.39,1.8-1a.37.37,0,0,0,.13-.5l-.05-.08a.36.36,0,0,0-.5-.14l-1.9,1.1.58-2.1a.25.25,0,0,0-.2-.33l-.08,0a.31.31,0,0,0-.35.22l-.75,2.69-3.86,2.23v-3.39l2-2.13a.31.31,0,0,0,0-.42l0-.06a.26.26,0,0,0-.39,0l-1.53,1.66V140.3a.37.37,0,0,0-.37-.36h-.1a.37.37,0,0,0-.37.36v3l-1.35-1.46a.26.26,0,0,0-.39,0l0,.06a.31.31,0,0,0,0,.42l1.79,1.93v3.59l-3.85-2.22-.69-2.67a.3.3,0,0,0-.35-.23h-.08a.28.28,0,0,0-.21.33l.55,2.11-1.93-1.12a.36.36,0,0,0-.5.14l0,.08a.37.37,0,0,0,.13.5l1.83,1.06-2,.35a.27.27,0,0,0-.21.33l0,.08a.31.31,0,0,0,.35.22l2.75-.48,3.87,2.23-3.74,2.16-2.81-.54a.31.31,0,0,0-.36.22l0,.07a.26.26,0,0,0,.2.33l2.14.41-2,1.15a.36.36,0,0,0-.13.49l0,.09a.35.35,0,0,0,.5.13l1.94-1.11-.56,2a.26.26,0,0,0,.21.33h.07a.31.31,0,0,0,.36-.22l.71-2.59,3.83-2.21v4l-1.79,1.94a.31.31,0,0,0,0,.42l0,.05a.26.26,0,0,0,.39,0l1.35-1.46v2.62a.37.37,0,0,0,.37.36h.1a.37.37,0,0,0,.37-.36v-2.82l1.53,1.66a.26.26,0,0,0,.39,0l0-.05a.31.31,0,0,0,0-.42l-2-2.14v-3.82l3.32,1.92.71,2.74a.3.3,0,0,0,.35.22h.08a.26.26,0,0,0,.21-.33l-.56-2.16,2.45,1.41a.35.35,0,0,0,.5-.13l.05-.09a.36.36,0,0,0-.13-.49l-2.27-1.32,2-.34a.27.27,0,0,0,.21-.33l0-.07a.31.31,0,0,0-.35-.23l-2.69.47-3.42-2,3.91-2.25,2.71.52a.32.32,0,0,0,.36-.22l0-.08A.26.26,0,0,0,135.33,146.24Z"/><path class="cls-2" d="M157.33,180.34l-2.9-.56,2.58-1.49a.51.51,0,0,0,.19-.71l-.07-.12a.53.53,0,0,0-.72-.2l-2.72,1.57.84-3a.37.37,0,0,0-.3-.47l-.11,0a.45.45,0,0,0-.51.31l-1.06,3.85-5.54,3.2v-4.86l2.83-3.06a.46.46,0,0,0,0-.6l-.08-.08a.38.38,0,0,0-.55,0l-2.2,2.38v-4.64a.52.52,0,0,0-.52-.52h-.15a.52.52,0,0,0-.52.52v4.36l-1.94-2.1a.38.38,0,0,0-.55,0l-.08.08a.46.46,0,0,0,0,.6l2.57,2.78v5.14l-5.52-3.18-1-3.83a.44.44,0,0,0-.5-.33l-.11,0a.37.37,0,0,0-.3.47l.78,3-2.77-1.6a.52.52,0,0,0-.71.2l-.07.12a.51.51,0,0,0,.19.71l2.61,1.51-2.91.52a.35.35,0,0,0-.3.46l0,.11a.47.47,0,0,0,.51.33l3.93-.7,5.54,3.2-5.35,3.09-4-.78a.45.45,0,0,0-.51.32l0,.11a.37.37,0,0,0,.29.47l3.06.59-2.83,1.64a.51.51,0,0,0-.19.71l.07.12a.52.52,0,0,0,.71.2l2.78-1.61-.79,2.87a.38.38,0,0,0,.29.48l.11,0a.45.45,0,0,0,.51-.32l1-3.71,5.49-3.17v5.76l-2.57,2.77a.46.46,0,0,0,0,.6l.08.09a.38.38,0,0,0,.55,0l1.94-2.1v3.75a.52.52,0,0,0,.52.52h.15a.52.52,0,0,0,.52-.52v-4l2.2,2.38a.38.38,0,0,0,.55,0l.08-.09a.46.46,0,0,0,0-.6L147,190.22v-5.47l4.76,2.76,1,3.91a.45.45,0,0,0,.51.32l.11,0a.37.37,0,0,0,.3-.46l-.8-3.1,3.51,2a.53.53,0,0,0,.72-.2l.07-.12a.51.51,0,0,0-.19-.71l-3.25-1.88,2.82-.5a.37.37,0,0,0,.3-.47l0-.11a.45.45,0,0,0-.5-.32l-3.84.68-4.91-2.84,5.61-3.23,3.88.75a.45.45,0,0,0,.51-.32l0-.1A.39.39,0,0,0,157.33,180.34Z"/><path class="cls-2" d="M169.66,152.94l-1.32-.25,1.17-.68a.23.23,0,0,0,.09-.32l0-.06a.25.25,0,0,0-.33-.09l-1.23.72.38-1.37a.18.18,0,0,0-.14-.22h-.05a.22.22,0,0,0-.23.15l-.48,1.74L165,154V151.8l1.28-1.39a.2.2,0,0,0,0-.27l0,0a.17.17,0,0,0-.26,0l-1,1.07v-2.1a.24.24,0,0,0-.24-.24h-.06a.24.24,0,0,0-.24.24v2l-.88-.94a.16.16,0,0,0-.25,0l0,0a.2.2,0,0,0,0,.27l1.17,1.26V154l-2.5-1.45-.45-1.74a.2.2,0,0,0-.23-.14h0a.17.17,0,0,0-.14.21l.36,1.37-1.26-.73a.24.24,0,0,0-.32.09l0,.06a.23.23,0,0,0,.08.32l1.19.68-1.32.24a.17.17,0,0,0-.14.21v.05a.2.2,0,0,0,.23.14l1.78-.31,2.52,1.45-2.43,1.4-1.83-.35a.2.2,0,0,0-.23.14v.05a.17.17,0,0,0,.13.22l1.39.26-1.29.75a.23.23,0,0,0-.08.32l0,.06a.23.23,0,0,0,.32.08l1.26-.72-.36,1.3a.17.17,0,0,0,.14.21h0a.2.2,0,0,0,.23-.14l.46-1.68,2.49-1.44v2.61l-1.17,1.26a.2.2,0,0,0,0,.27l0,0a.18.18,0,0,0,.25,0l.88-1v1.69a.23.23,0,0,0,.24.24h.06a.24.24,0,0,0,.24-.24V158l1,1.08a.19.19,0,0,0,.26,0l0,0a.2.2,0,0,0,0-.27L165,157.42v-2.48l2.16,1.25.46,1.77a.19.19,0,0,0,.22.15h.05a.16.16,0,0,0,.14-.21l-.36-1.41,1.59.92a.24.24,0,0,0,.33-.08l0-.06a.23.23,0,0,0-.09-.32l-1.47-.86,1.28-.22a.16.16,0,0,0,.13-.21v-.05a.2.2,0,0,0-.23-.15l-1.74.31-2.22-1.29,2.54-1.46,1.76.34a.21.21,0,0,0,.23-.15v0A.17.17,0,0,0,169.66,152.94Z"/><path class="cls-2" d="M78.23,204.21l-2.9-.56,2.58-1.49a.52.52,0,0,0,.19-.71l-.07-.13a.53.53,0,0,0-.72-.19l-2.72,1.57.83-3a.37.37,0,0,0-.29-.47l-.11,0a.44.44,0,0,0-.51.31l-1.06,3.85-5.54,3.2V201.7l2.83-3.06a.46.46,0,0,0,0-.6l-.08-.08a.39.39,0,0,0-.56,0l-2.19,2.38V195.7a.52.52,0,0,0-.53-.52h-.14a.52.52,0,0,0-.52.52v4.36L64.78,198a.39.39,0,0,0-.56,0l-.07.08a.46.46,0,0,0,0,.6l2.57,2.78v5.14l-5.52-3.18-1-3.83a.44.44,0,0,0-.5-.33l-.11,0a.37.37,0,0,0-.3.47l.78,3-2.77-1.6a.52.52,0,0,0-.71.19l-.08.13a.52.52,0,0,0,.2.71l2.61,1.51-2.92.51a.38.38,0,0,0-.3.47l0,.11a.45.45,0,0,0,.51.32l3.93-.69,5.54,3.2-5.35,3.09-4-.78a.45.45,0,0,0-.51.32l0,.11a.38.38,0,0,0,.3.47l3.06.59L56.72,213a.54.54,0,0,0-.2.72l.08.12a.51.51,0,0,0,.71.19l2.78-1.6-.8,2.87a.38.38,0,0,0,.3.48l.11,0a.45.45,0,0,0,.51-.32l1-3.71,5.49-3.17v5.76l-2.57,2.77a.46.46,0,0,0,0,.6l.07.08a.37.37,0,0,0,.56,0l1.94-2.09v3.75a.52.52,0,0,0,.52.52h.14a.53.53,0,0,0,.53-.52v-4l2.19,2.37a.37.37,0,0,0,.56,0l.08-.08a.46.46,0,0,0,0-.6l-2.83-3.06v-5.47l4.76,2.76,1,3.91a.45.45,0,0,0,.51.32l.11,0a.37.37,0,0,0,.3-.46L73.8,212l3.51,2a.53.53,0,0,0,.72-.19l.07-.12a.53.53,0,0,0-.19-.72l-3.26-1.87,2.83-.5a.37.37,0,0,0,.3-.47l0-.11a.45.45,0,0,0-.5-.32l-3.84.68-4.91-2.84,5.6-3.23,3.88.75a.45.45,0,0,0,.51-.32l0-.1A.38.38,0,0,0,78.23,204.21Z"/><path class="cls-2" d="M119.06,209l-2-.39,1.8-1a.37.37,0,0,0,.13-.5l0-.09a.37.37,0,0,0-.5-.13l-1.9,1.1.58-2.11a.26.26,0,0,0-.2-.33h-.08a.31.31,0,0,0-.35.22l-.75,2.69-3.86,2.23v-3.39l2-2.14a.31.31,0,0,0,0-.42l0,0a.26.26,0,0,0-.39,0l-1.53,1.66V203a.38.38,0,0,0-.37-.37h-.1a.37.37,0,0,0-.36.37v3l-1.36-1.46a.25.25,0,0,0-.38,0l-.06,0a.33.33,0,0,0,0,.42L111,207v3.59l-3.86-2.22-.69-2.68a.3.3,0,0,0-.35-.22h-.07a.26.26,0,0,0-.21.33l.54,2.11-1.93-1.12a.37.37,0,0,0-.5.13l0,.09a.37.37,0,0,0,.13.5l1.83,1-2,.36a.26.26,0,0,0-.21.33l0,.07a.32.32,0,0,0,.35.23l2.75-.48,3.87,2.23-3.74,2.16-2.81-.55a.31.31,0,0,0-.36.22l0,.08a.26.26,0,0,0,.2.33L106,214l-2,1.14a.37.37,0,0,0-.13.5l0,.09a.37.37,0,0,0,.5.13l1.94-1.12-.56,2a.26.26,0,0,0,.21.33h.07a.31.31,0,0,0,.36-.22l.71-2.59,3.84-2.21v4l-1.8,1.93a.33.33,0,0,0,0,.42l.06.06a.25.25,0,0,0,.38,0L111,217v2.61a.37.37,0,0,0,.36.37h.1a.38.38,0,0,0,.37-.37v-2.81l1.53,1.66a.26.26,0,0,0,.39,0l0-.06a.31.31,0,0,0,0-.42l-2-2.13v-3.82l3.32,1.92.71,2.73a.31.31,0,0,0,.35.23h.08a.27.27,0,0,0,.21-.33l-.56-2.17,2.45,1.42a.37.37,0,0,0,.5-.13l0-.09a.37.37,0,0,0-.13-.5l-2.27-1.31,2-.35a.26.26,0,0,0,.21-.32l0-.08a.31.31,0,0,0-.35-.22l-2.69.47-3.42-2,3.91-2.26,2.71.53a.32.32,0,0,0,.36-.22l0-.08A.26.26,0,0,0,119.06,209Z"/><path class="cls-2" d="M92.29,142.11,91,141.86l1.17-.68a.24.24,0,0,0,.09-.32l0-.06a.23.23,0,0,0-.32-.08l-1.23.71.37-1.37a.16.16,0,0,0-.13-.21h0a.2.2,0,0,0-.23.14l-.48,1.75-2.52,1.45V141l1.29-1.39a.2.2,0,0,0,0-.27l0,0a.16.16,0,0,0-.25,0l-1,1.08v-2.11a.23.23,0,0,0-.23-.23H87.3a.23.23,0,0,0-.23.23v2l-.88-.95a.16.16,0,0,0-.25,0l0,0a.2.2,0,0,0,0,.27l1.17,1.26v2.33l-2.51-1.44L84.12,140a.21.21,0,0,0-.23-.15h0a.17.17,0,0,0-.14.21l.35,1.37-1.25-.72a.23.23,0,0,0-.32.08l0,.06a.24.24,0,0,0,.09.32l1.19.69-1.33.23a.16.16,0,0,0-.13.21v.05a.21.21,0,0,0,.23.15l1.78-.32,2.52,1.46-2.43,1.4-1.83-.36a.21.21,0,0,0-.23.15l0,0a.18.18,0,0,0,.14.21l1.38.27-1.28.74a.24.24,0,0,0-.09.32l0,.06a.24.24,0,0,0,.32.09l1.26-.73-.36,1.3a.17.17,0,0,0,.13.22h0a.21.21,0,0,0,.23-.15l.47-1.68,2.49-1.44v2.61L85.9,148a.2.2,0,0,0,0,.27l0,0a.18.18,0,0,0,.25,0l.88-.95V149a.23.23,0,0,0,.23.24h.07a.23.23,0,0,0,.23-.24v-1.83l1,1.08a.18.18,0,0,0,.25,0l0,0a.2.2,0,0,0,0-.27l-1.29-1.39v-2.48l2.17,1.25.45,1.77a.21.21,0,0,0,.23.15h0a.17.17,0,0,0,.14-.21l-.36-1.4,1.59.92a.24.24,0,0,0,.32-.09l0-.06a.24.24,0,0,0-.09-.32l-1.48-.85L92,145a.16.16,0,0,0,.13-.21v0a.22.22,0,0,0-.23-.15l-1.74.31-2.23-1.28,2.54-1.47,1.76.34a.21.21,0,0,0,.24-.14v0A.17.17,0,0,0,92.29,142.11Z"/></g></g></g></svg>