<svg xmlns="http://www.w3.org/2000/svg" viewBox="0 0 229.26 184.57"><defs><style>.cls-1,.cls-2{fill:#fff;}.cls-1{opacity:0.7;}</style></defs><g id="Layer_2" data-name="Layer 2"><g id="Layer_10" data-name="Layer 10"><g id="mist"><path class="cls-1" d="M199,130.25H77.84s-36.65-12.67-36.65-38.9,9-34.35,28.93-40.83c0,0-.32-42.76,38.58-49.51s47.58,22.51,47.58,22.51,22.19-9.65,35.05,3.21c0,0,15.11,8.36,7.71,31.19,0,0,29.9,8.35,30.22,36S199,130.25,199,130.25Z"/><path class="cls-2" d="M157.85,130.25H36.65S0,117.58,0,91.35,9,57,28.93,50.52c0,0-.32-42.76,38.58-49.51s47.58,22.51,47.58,22.51,22.19-9.65,35,3.21c0,0,15.11,8.36,7.71,31.19,0,0,29.9,8.35,30.22,36S157.85,130.25,157.85,130.25Z"/><rect class="cls-2" x="34.62" y="139.46" width="140.76" height="4.36" rx="2.18"/><path class="cls-2" d="M114,153l-58.66,0a2.19,2.19,0,0,0-2.18,2.18h0a2.19,2.19,0,0,0,2.18,2.18l58.66,0a2.18,2.18,0,0,0,2.18-2.18h0A2.19,2.19,0,0,0,114,153Z"/><path class="cls-2" d="M192.61,153.06H123.09a2.18,2.18,0,0,0-2.18,2.18h0a2.19,2.19,0,0,0,2.18,2.18h69.52a2.18,2.18,0,0,0,2.18-2.18h0A2.18,2.18,0,0,0,192.61,153.06Z"/><path class="cls-2" d="M57.64,167.53l-24.57,0a2.18,2.18,0,0,0-2.18,2.18h0a2.19,2.19,0,0,0,2.18,2.18l24.57,0a2.18,2.18,0,0,0,2.18-2.18h0A2.19,2.19,0,0,0,57.64,167.53Z"/><path class="cls-2" d="M170.3,167.55l-69.52,0a2.19,2.19,0,0,0-2.18,2.18h0a2.18,2.18,0,0,0,2.18,2.18l69.52,0a2.19,2.19,0,0,0,2.18-2.18h0A2.18,2.18,0,0,0,170.3,167.55Z"/><path class="cls-2" d="M91.56,167.53H67a2.19,2.19,0,0,0-2.18,2.18h0A2.19,2.19,0,0,0,67,171.9H91.56a2.19,2.19,0,0,0,2.18-2.18h0A2.18,2.18,0,0,0,91.56,167.53Z"/><rect class="cls-2" x="51.23" y="180.21" width="140.76" height="4.36" rx="2.18"/></g></g></g></svg>